# xmcd
#
# Track frame offsets:
#	150
#	15648
#	33317
#	50635
#	63621
#	76597
#	96015
#	117690
#	136377
#	157341
#	174868
#
# Disc length: 2562 seconds
#
# Revision: 0
# Processed by: cddbd v1.5.1PL0 Copyright (c) Steve Scherf et al.
# Submitted via: audiograbber 1.83.01
#
DISCID=8f0a000b
DTITLE=Trent Willmon - Trent Willmon
DYEAR=2004
DGENRE=Country
TTITLE0=Beer Man
TTITLE1=Dixie Rose Deluxe's Honky Tonk, Feed Store, Gun Shop, Used Car, Beer, B
TTITLE1=ait, BBQ, Barber Shop and LaundHome Sweet Holiday Inn
TTITLE2=Home Sweet Holiday Inn
TTITLE3=She Don't Love Me
TTITLE4=The Good Life
TTITLE5=Population 81
TTITLE6=Medina Daydreamin'
TTITLE7=The Wishing Well
TTITLE8=All Day Long
TTITLE9=Every Now and Then
TTITLE10=Here
EXTD=
EXTT0=
EXTT1=
EXTT2=
EXTT3=
EXTT4=
EXTT5=
EXTT6=
EXTT7=
EXTT8=
EXTT9=
EXTT10=
PLAYORDER=
